<?xml version="1.0" standalone="no"?>
<!DOCTYPE svg PUBLIC "-//W3C//DTD SVG 20010904//EN"
 "http://www.w3.org/TR/2001/REC-SVG-20010904/DTD/svg10.dtd">
<svg version="1.0" xmlns="http://www.w3.org/2000/svg"
 width="4044.000000pt" height="1000.000000pt" viewBox="0 0 4044.000000 1000.000000"
 preserveAspectRatio="xMidYMid meet">
<metadata>
Created by potrace 1.16, written by Peter Selinger 2001-2019
</metadata>
<g transform="translate(0.000000,1000.000000) scale(0.100000,-0.100000)"
fill="#000000" stroke="none">
<path d="M2675 9980 c-140 -13 -270 -34 -360 -60 -22 -6 -53 -15 -70 -19 -98
-27 -355 -137 -355 -152 0 -22 260 -433 327 -519 7 -8 33 -44 60 -80 26 -36
50 -67 53 -70 3 -3 31 -36 62 -75 61 -75 211 -225 293 -292 113 -91 327 -217
450 -263 11 -4 31 -12 45 -18 14 -6 43 -16 65 -23 22 -6 49 -15 60 -20 11 -4
34 -10 50 -14 17 -3 48 -10 70 -16 155 -37 269 -48 605 -55 277 -6 285 -7 322
-30 51 -33 88 -106 88 -176 0 -91 -55 -152 -165 -183 -69 -19 -290 -92 -320
-105 -11 -4 -63 -25 -115 -45 -138 -53 -172 -68 -380 -169 -158 -76 -306 -154
-348 -185 -17 -11 -33 -21 -36 -21 -4 0 -62 -37 -129 -82 -327 -218 -593 -450
-914 -798 -132 -143 -392 -483 -425 -556 -6 -13 -15 -24 -20 -24 -4 0 -8 -5
-8 -11 0 -6 -13 -30 -30 -54 -16 -24 -30 -46 -30 -48 0 -3 -17 -34 -38 -68
-73 -119 -211 -407 -269 -559 -14 -36 -29 -74 -33 -85 -5 -11 -23 -65 -41
-120 -17 -55 -35 -109 -40 -120 -4 -11 -10 -33 -14 -50 -6 -29 -14 -62 -36
-150 -20 -78 -47 -235 -59 -340 -20 -172 -29 -216 -51 -257 -35 -61 -79 -88
-148 -88 -64 0 -105 20 -144 72 -40 54 -49 100 -48 242 1 173 14 292 61 551 9
46 38 166 60 240 5 17 13 46 18 65 11 42 40 127 51 155 5 11 14 36 21 55 20
59 34 94 69 172 12 26 21 51 21 54 0 9 195 401 226 454 28 48 175 268 206 310
10 14 47 61 81 105 34 44 69 89 77 101 51 72 238 272 405 435 150 145 293 262
530 434 54 39 274 174 353 217 90 49 423 214 500 248 60 27 66 46 20 55 -18 3
-44 10 -58 14 -14 5 -45 14 -70 21 -25 6 -53 16 -62 21 -10 5 -26 9 -36 9 -10
0 -22 4 -27 8 -6 4 -28 14 -50 21 -22 7 -49 16 -60 21 -45 18 -103 43 -150 65
-104 47 -100 46 -157 22 -99 -40 -302 -148 -467 -246 -52 -31 -106 -63 -120
-71 -40 -24 -145 -94 -151 -100 -3 -4 -34 -26 -69 -50 -35 -23 -71 -49 -80
-56 -9 -7 -70 -56 -136 -109 -293 -236 -568 -519 -762 -785 -34 -47 -66 -89
-70 -95 -16 -21 -130 -199 -155 -243 -115 -202 -260 -499 -313 -642 -9 -25
-21 -54 -25 -65 -75 -178 -186 -632 -221 -905 -43 -339 -46 -755 -8 -1055 23
-177 30 -232 39 -282 49 -265 104 -485 167 -658 14 -38 27 -80 30 -91 6 -28
36 -42 98 -48 28 -2 104 -10 170 -17 79 -9 252 -14 510 -14 407 1 598 10 615
30 6 7 6 23 -1 46 -35 111 -59 225 -82 374 -16 108 -16 681 1 800 18 137 54
322 80 415 6 19 18 62 27 95 24 91 98 308 136 403 5 12 13 32 18 45 51 127
148 332 217 457 74 134 253 422 296 475 4 6 38 51 75 100 36 50 100 133 142
185 81 101 374 426 389 431 5 2 51 43 103 90 122 112 186 165 345 283 71 53
135 101 142 107 20 17 279 181 332 211 25 14 63 35 85 48 50 29 194 101 258
129 85 38 136 61 181 81 58 26 269 108 326 126 25 8 53 19 62 24 10 6 25 10
33 10 8 0 23 4 33 9 16 9 92 34 160 52 17 5 49 14 70 20 20 6 54 15 75 20 20
5 55 14 77 19 130 32 162 40 258 60 80 17 240 45 342 61 126 19 336 39 413 39
116 0 104 16 -78 108 -280 142 -411 195 -720 291 -27 9 -228 56 -282 67 -38 7
-54 32 -47 72 13 80 58 212 106 312 145 301 347 497 653 633 84 37 242 78 266
69 17 -7 14 -10 -18 -21 -79 -29 -218 -124 -313 -213 -116 -109 -223 -268
-265 -392 -24 -70 -17 -85 51 -104 68 -19 361 -21 434 -4 430 105 733 396 945
907 l16 40 -28 23 c-58 46 -233 121 -353 151 -130 32 -350 41 -493 21 -86 -13
-235 -47 -259 -61 -10 -5 -23 -9 -29 -9 -23 0 -225 -103 -296 -151 -224 -152
-414 -377 -543 -644 -54 -112 -59 -124 -80 -185 -7 -19 -16 -44 -20 -55 -4
-11 -12 -38 -18 -60 -6 -22 -15 -58 -21 -80 -5 -22 -16 -70 -22 -107 l-13 -68
-51 0 -51 0 -12 48 c-18 66 -71 232 -84 262 -6 14 -14 34 -18 45 -20 53 -100
210 -151 296 -131 223 -309 423 -508 573 -58 43 -112 81 -120 84 -9 3 -34 17
-56 32 -117 77 -369 171 -560 209 -166 33 -396 45 -560 31z m585 -502 c77 -18
192 -59 255 -91 54 -28 204 -124 258 -165 51 -39 197 -193 255 -270 60 -78
122 -182 122 -204 0 -5 -46 38 -102 97 -195 204 -376 338 -653 484 -53 28
-260 122 -308 140 -80 30 55 37 173 9z"/>
<path d="M6155 7533 c-151 -22 -559 -123 -617 -154 -10 -5 -27 -9 -37 -9 -11
0 -23 -4 -26 -10 -3 -5 -16 -10 -29 -10 -12 0 -26 -4 -32 -8 -5 -5 -29 -15
-54 -22 -25 -8 -49 -16 -55 -20 -5 -3 -28 -12 -50 -19 -22 -7 -49 -16 -60 -21
-11 -4 -96 -38 -190 -75 -167 -67 -206 -83 -355 -152 -163 -74 -441 -226 -575
-314 -33 -21 -67 -42 -75 -45 -8 -4 -23 -14 -33 -22 -9 -8 -26 -20 -36 -26
-27 -16 -145 -98 -151 -106 -3 -3 -21 -17 -40 -30 -19 -13 -37 -27 -40 -30 -3
-3 -25 -21 -50 -40 -25 -19 -61 -48 -81 -65 -19 -16 -49 -41 -65 -54 -246
-203 -524 -495 -682 -715 -78 -108 -152 -216 -152 -222 0 -3 -17 -31 -38 -62
-107 -158 -283 -506 -367 -727 -15 -38 -31 -79 -35 -90 -11 -26 -44 -127 -60
-185 -7 -25 -16 -56 -20 -70 -5 -14 -13 -47 -20 -75 -6 -27 -15 -66 -20 -85
-18 -72 -51 -290 -65 -435 -18 -176 -20 -446 -4 -583 16 -149 49 -334 61 -349
12 -15 52 -17 94 -4 16 5 54 14 84 20 76 16 138 31 183 42 20 5 54 13 75 18
52 13 93 24 282 76 188 53 418 128 538 176 12 5 33 14 47 19 14 6 36 15 50 20
14 6 35 14 48 19 36 14 88 37 150 65 32 14 59 26 61 26 16 0 572 273 666 326
25 15 100 57 166 95 67 37 170 98 230 134 106 65 594 391 604 404 3 3 46 35
95 71 385 276 804 659 1065 975 36 43 79 94 96 114 17 20 72 92 123 161 51 69
98 132 105 140 25 31 172 256 192 295 27 49 50 60 40 19 -10 -41 -75 -225 -86
-246 -6 -10 -10 -22 -10 -28 0 -6 -9 -32 -21 -58 -12 -26 -24 -56 -29 -67 -26
-69 -146 -317 -194 -403 -78 -139 -272 -418 -398 -572 -184 -224 -511 -555
-708 -716 -19 -16 -44 -37 -55 -47 -36 -34 -248 -201 -345 -273 -192 -142
-436 -300 -645 -418 -23 -13 -125 -72 -170 -98 -47 -28 -435 -221 -485 -242
-25 -10 -65 -28 -90 -39 -25 -10 -58 -25 -75 -32 -153 -67 -359 -143 -570
-212 -77 -25 -149 -49 -160 -53 -11 -5 -31 -11 -45 -15 -14 -3 -38 -10 -55
-15 -16 -5 -47 -14 -67 -19 -21 -6 -55 -16 -75 -22 -21 -6 -56 -15 -78 -20
-22 -6 -58 -14 -80 -20 -197 -49 -351 -78 -655 -123 -173 -25 -360 -36 -629
-36 -291 0 -658 15 -745 31 -100 18 -100 2 9 -160 262 -390 510 -687 629 -754
150 -84 347 -112 731 -104 342 8 512 24 820 76 141 24 433 91 568 130 62 19
102 30 137 39 43 12 247 79 275 91 11 5 36 14 55 21 35 12 56 20 108 41 15 7
37 16 50 20 12 5 33 14 47 19 14 6 35 14 48 19 177 71 519 234 682 326 179
100 399 234 516 315 36 25 108 74 160 109 83 58 134 96 285 214 213 167 606
550 778 757 43 52 88 106 100 120 68 80 316 429 316 445 0 4 14 26 30 50 17
24 30 46 30 50 0 3 11 22 24 43 59 91 266 501 266 527 0 3 8 24 19 48 10 23
29 69 41 102 12 33 26 68 31 77 5 10 9 25 9 33 0 8 4 23 9 33 22 41 86 288
116 442 39 206 45 273 45 536 0 164 4 265 10 269 6 3 10 -3 10 -14 0 -11 4
-22 8 -25 4 -3 14 -28 22 -56 8 -28 18 -53 22 -56 4 -3 8 -16 8 -29 0 -13 5
-27 10 -30 6 -3 10 -17 10 -30 0 -13 4 -26 9 -29 5 -3 11 -18 14 -33 3 -16 10
-44 16 -63 58 -200 80 -317 106 -565 18 -179 18 -328 0 -535 -25 -273 -66
-508 -124 -710 -5 -19 -14 -51 -19 -70 -15 -53 -43 -142 -53 -165 -4 -11 -15
-42 -24 -69 -64 -199 -276 -655 -355 -766 -11 -16 -20 -31 -20 -34 0 -13 -237
-365 -260 -386 -3 -3 -17 -21 -30 -40 -14 -19 -32 -44 -42 -55 -9 -11 -44 -54
-78 -95 -276 -333 -586 -625 -925 -871 -98 -71 -345 -238 -397 -268 -181 -104
-258 -145 -436 -232 -274 -134 -302 -146 -475 -214 -125 -49 -186 -56 -237
-30 -42 22 -80 76 -80 114 0 86 72 144 300 241 223 95 300 153 300 227 0 69
-64 133 -134 133 -38 0 -73 -15 -329 -138 -89 -44 -178 -86 -197 -94 -19 -9
-60 -27 -90 -41 -30 -13 -100 -41 -155 -61 -55 -20 -122 -45 -150 -56 -27 -10
-68 -24 -90 -31 -22 -6 -49 -15 -60 -19 -11 -4 -40 -13 -65 -20 -92 -26 -116
-33 -138 -41 -13 -5 -34 -9 -47 -9 -13 0 -26 -4 -29 -9 -3 -5 -23 -11 -43 -14
-21 -3 -58 -10 -83 -17 -113 -28 -237 -52 -425 -81 -38 -6 -236 -13 -440 -15
-203 -3 -374 -9 -379 -14 -17 -17 64 -75 246 -175 70 -38 303 -154 358 -178
19 -8 51 -21 70 -30 186 -80 479 -170 705 -216 33 -7 78 -17 100 -21 69 -15
193 -33 360 -52 133 -15 699 -15 850 0 180 18 196 21 365 54 147 29 544 136
625 168 11 4 47 18 80 30 100 37 172 69 310 136 302 149 593 337 875 568 232
190 611 616 808 908 29 42 52 79 52 81 0 2 22 43 49 90 79 136 264 518 292
602 7 22 17 44 21 50 4 5 8 19 8 31 0 13 5 26 10 29 6 3 10 17 10 30 0 13 4
26 9 29 5 3 11 18 14 33 2 16 16 66 30 113 34 112 85 311 98 380 6 30 15 75
20 100 53 266 72 473 72 790 1 304 -15 479 -64 740 -50 264 -155 633 -210 742
-5 10 -9 22 -9 28 0 6 -9 32 -21 58 -12 26 -24 56 -29 67 -32 83 -122 267
-203 415 -115 210 -263 424 -440 640 -143 174 -590 600 -629 600 -8 0 -68 -54
-134 -121 -100 -102 -372 -354 -441 -410 -174 -140 -449 -323 -668 -446 -81
-45 -414 -211 -495 -247 -36 -15 -85 -37 -110 -48 -25 -11 -54 -24 -65 -28
-11 -5 -41 -17 -67 -29 -26 -12 -52 -21 -58 -21 -6 0 -18 -4 -28 -9 -39 -20
-74 -33 -233 -85 -337 -111 -411 -121 -493 -63 -32 22 -76 113 -76 155 0 35
48 112 87 140 42 30 137 67 263 102 25 7 54 16 65 20 11 4 54 18 95 30 41 12
83 26 92 31 10 5 25 9 33 9 8 0 23 4 33 10 9 5 46 19 82 30 36 12 74 25 85 30
11 4 103 41 205 80 102 40 209 83 238 96 28 13 78 36 110 50 168 76 406 199
549 284 94 57 255 160 263 170 3 3 21 17 40 30 19 13 37 27 40 30 3 3 23 18
45 35 68 50 145 127 145 145 0 28 -45 40 -148 39 -53 -1 -110 -4 -127 -6z
m710 -671 c-48 -107 -112 -223 -172 -315 -60 -91 -230 -325 -257 -353 -6 -6
-59 -64 -118 -130 -187 -208 -386 -386 -676 -603 -149 -111 -502 -351 -517
-351 -4 0 -26 -13 -50 -30 -24 -16 -47 -30 -50 -30 -4 0 -19 -8 -33 -19 -66
-45 -569 -299 -747 -376 -16 -7 -46 -20 -65 -28 -191 -84 -587 -222 -825 -288
-22 -6 -51 -15 -65 -19 -14 -4 -43 -12 -65 -18 -101 -26 -132 -35 -153 -43
-71 -28 -174 3 -234 69 -54 60 -68 93 -68 162 0 148 105 239 335 290 157 35
225 51 285 69 19 5 53 15 75 21 22 6 54 15 70 20 42 13 96 28 125 35 14 4 34
10 45 15 11 4 54 18 95 30 41 12 83 26 92 31 10 5 25 9 33 9 8 0 23 4 33 10 9
5 51 21 92 34 114 38 397 143 485 181 177 76 227 99 459 216 128 64 262 135
300 158 37 22 70 41 73 41 2 0 24 14 48 30 24 17 46 30 49 30 5 0 63 37 276
174 92 59 234 162 296 215 17 14 42 35 55 46 13 10 49 40 80 65 154 125 196
163 337 303 85 84 202 210 260 280 104 125 131 144 97 69z"/>
<path d="M10440 7367 c0 -2 23 -71 51 -153 28 -82 89 -261 136 -399 47 -137
123 -362 170 -500 47 -137 125 -367 173 -510 49 -143 161 -474 250 -735 260
-764 337 -990 422 -1245 45 -132 85 -246 91 -252 7 -10 115 -13 478 -13 451 0
469 1 479 19 5 11 75 201 154 423 408 1137 546 1522 551 1526 3 3 10 -8 15
-24 6 -16 170 -459 363 -984 l353 -955 476 -3 476 -2 12 32 c6 18 50 144 96
280 163 479 257 756 344 1013 79 233 277 815 487 1430 41 121 119 351 173 510
54 160 116 344 139 409 22 66 41 123 41 128 0 4 -143 8 -319 8 l-318 0 -26
-72 c-14 -40 -60 -174 -102 -298 -42 -124 -110 -322 -150 -440 -447 -1314
-558 -1636 -564 -1643 -4 -4 -34 63 -66 150 -52 144 -583 1587 -760 2068 -40
110 -77 208 -80 218 -7 16 -28 17 -297 15 l-291 -3 -222 -620 c-122 -341 -318
-888 -435 -1215 -117 -327 -215 -598 -219 -602 -5 -6 -100 268 -456 1312 -40
118 -107 315 -149 438 -42 122 -110 322 -151 445 -42 122 -78 228 -80 235 -3
9 -137 12 -625 12 -341 0 -620 -2 -620 -3z"/>
<path d="M24390 5465 l0 -1905 570 0 570 0 0 64 0 64 95 -48 c193 -98 360
-139 600 -147 266 -8 448 28 661 132 368 179 625 519 715 948 31 147 31 399 0
547 -58 272 -169 492 -343 675 -197 209 -445 340 -733 390 -134 23 -358 23
-490 0 -132 -23 -318 -84 -422 -139 l-83 -45 0 685 0 684 -570 0 -570 0 0
-1905z m1683 310 c167 -35 272 -143 323 -330 18 -65 19 -111 19 -605 0 -488
-2 -541 -18 -599 -66 -231 -239 -357 -465 -338 -216 18 -352 157 -392 402 -6
33 -10 277 -10 548 0 403 3 501 16 565 40 200 147 320 317 357 81 18 128 18
210 0z"/>
<path d="M31860 6985 l0 -385 570 0 570 0 0 385 0 385 -570 0 -570 0 0 -385z"/>
<path d="M17940 6259 c-495 -40 -899 -194 -1136 -433 -77 -78 -136 -173 -159
-253 l-6 -23 545 0 545 0 6 38 c33 213 141 323 347 352 87 13 208 -1 278 -31
55 -23 127 -95 158 -155 43 -84 82 -272 82 -391 l0 -63 -282 0 c-498 0 -759
-31 -1038 -121 -345 -112 -588 -315 -681 -569 -94 -259 -34 -544 160 -762 128
-143 374 -273 613 -322 196 -41 502 -46 683 -12 179 33 350 98 481 181 32 21
61 37 64 37 3 -1 7 -39 10 -84 l5 -83 565 0 565 0 0 775 c0 587 -3 796 -13
860 -54 354 -214 623 -472 795 -177 118 -407 201 -660 239 -226 34 -443 42
-660 25z m664 -1654 c0 -308 0 -311 -26 -383 -63 -176 -181 -285 -341 -315
-195 -36 -406 113 -462 328 -18 70 -20 250 -4 327 37 171 168 290 369 332 104
22 124 23 305 22 l160 -1 -1 -310z"/>
<path d="M29525 6264 c-16 -2 -70 -9 -120 -15 -676 -82 -1228 -532 -1375
-1119 -30 -119 -38 -361 -16 -486 49 -281 170 -509 385 -725 518 -517 1384
-647 2096 -314 345 161 607 423 746 745 21 50 39 95 39 100 0 6 -203 10 -570
10 l-570 0 0 -87 c0 -353 -134 -583 -368 -632 -211 -44 -402 45 -490 230 -65
135 -74 199 -79 552 l-5 317 1071 0 1071 0 0 78 c0 83 -26 220 -60 323 -140
416 -522 774 -990 927 -196 65 -353 91 -575 96 -88 3 -173 3 -190 0z m234
-315 c162 -26 280 -138 336 -319 25 -82 45 -224 45 -322 l0 -88 -472 0 -471 0
6 128 c16 300 101 483 261 562 94 46 181 58 295 39z"/>
<path d="M22300 6219 c-267 -33 -562 -169 -714 -328 -17 -17 -33 -31 -38 -31
-4 0 -9 60 -10 133 l-3 132 -560 0 -560 0 -3 -1283 -2 -1282 562 2 563 3 6
865 c5 858 5 866 27 932 70 210 257 338 496 338 242 0 422 -120 498 -331 l23
-64 5 -870 5 -870 565 0 565 0 0 785 c0 867 -1 889 -65 1082 -134 404 -428
662 -870 764 -120 28 -362 40 -490 23z"/>
<path d="M33336 6122 c-3 -5 87 -168 201 -363 817 -1407 1079 -1856 1169
-2012 57 -98 104 -183 104 -190 0 -7 -113 -218 -250 -470 -138 -252 -250 -461
-250 -463 0 -2 130 -4 288 -4 l288 0 351 643 c193 353 620 1134 948 1736 329
602 600 1102 602 1112 5 18 -7 19 -273 19 -154 0 -284 -4 -290 -8 -6 -4 -184
-326 -396 -715 l-386 -708 -243 418 c-134 230 -320 551 -415 713 l-172 295
-635 3 c-350 1 -638 -2 -641 -6z"/>
<path d="M31860 4840 l0 -1280 568 2 567 3 3 1278 2 1277 -570 0 -570 0 0
-1280z"/>
<path d="M37133 5298 l3 -823 26 -107 c53 -212 149 -394 283 -537 163 -172
382 -288 655 -347 121 -26 419 -26 545 0 239 49 447 151 612 300 l52 47 3
-133 3 -133 563 -3 562 -2 0 1280 0 1280 -565 0 -565 0 0 -842 c0 -918 0 -907
-58 -1026 -79 -162 -255 -262 -462 -262 -254 0 -446 139 -505 365 -13 51 -15
179 -15 912 l0 853 -570 0 -571 0 4 -822z"/>
</g>
</svg>
